<mxfile host="drawio-plugin" modified="2022-12-25T06:57:37.985Z" agent="5.0 (Windows NT 6.2; Win64; x64) AppleWebKit/537.36 (KHTML, like Gecko) Chrome/98.0.4758.102 Safari/537.36" etag="KuR7ohSAwAsYkC8ShmUe" version="20.5.3" type="embed"><diagram id="C5RBs43oDa-KdzZeNtuy" name="Page-1"><mxGraphModel dx="752" dy="521" grid="1" gridSize="10" guides="1" tooltips="1" connect="1" arrows="1" fold="1" page="1" pageScale="1" pageWidth="827" pageHeight="1169" math="0" shadow="0"><root><mxCell id="WIyWlLk6GJQsqaUBKTNV-0"/><mxCell id="WIyWlLk6GJQsqaUBKTNV-1" parent="WIyWlLk6GJQsqaUBKTNV-0"/><mxCell id="7RXHgZewywhJvZ7uJUFR-23" value="" style="edgeStyle=orthogonalEdgeStyle;rounded=0;orthogonalLoop=1;jettySize=auto;html=1;" parent="WIyWlLk6GJQsqaUBKTNV-1" source="7RXHgZewywhJvZ7uJUFR-2" target="7RXHgZewywhJvZ7uJUFR-3" edge="1"><mxGeometry relative="1" as="geometry"/></mxCell><mxCell id="7RXHgZewywhJvZ7uJUFR-2" value="Go to stock data source" style="strokeWidth=2;html=1;shape=mxgraph.flowchart.database;whiteSpace=wrap;" parent="WIyWlLk6GJQsqaUBKTNV-1" vertex="1"><mxGeometry x="267.5" y="30" width="60" height="60" as="geometry"/></mxCell><mxCell id="7RXHgZewywhJvZ7uJUFR-24" value="" style="edgeStyle=orthogonalEdgeStyle;rounded=0;orthogonalLoop=1;jettySize=auto;html=1;" parent="WIyWlLk6GJQsqaUBKTNV-1" source="7RXHgZewywhJvZ7uJUFR-3" target="7RXHgZewywhJvZ7uJUFR-6" edge="1"><mxGeometry relative="1" as="geometry"/></mxCell><mxCell id="7RXHgZewywhJvZ7uJUFR-3" value="Extract stock data" style="strokeWidth=2;html=1;shape=mxgraph.flowchart.extract_or_measurement;whiteSpace=wrap;" parent="WIyWlLk6GJQsqaUBKTNV-1" vertex="1"><mxGeometry x="560" y="20" width="95" height="60" as="geometry"/></mxCell><mxCell id="7RXHgZewywhJvZ7uJUFR-8" value="" style="edgeStyle=orthogonalEdgeStyle;rounded=0;orthogonalLoop=1;jettySize=auto;html=1;" parent="WIyWlLk6GJQsqaUBKTNV-1" source="7RXHgZewywhJvZ7uJUFR-6" target="7RXHgZewywhJvZ7uJUFR-7" edge="1"><mxGeometry relative="1" as="geometry"/></mxCell><mxCell id="7RXHgZewywhJvZ7uJUFR-6" value="Create the code for strategy&amp;nbsp;" style="verticalLabelPosition=middle;verticalAlign=middle;html=1;shape=trapezoid;perimeter=trapezoidPerimeter;whiteSpace=wrap;size=0.23;arcSize=10;flipV=1;labelPosition=center;align=center;" parent="WIyWlLk6GJQsqaUBKTNV-1" vertex="1"><mxGeometry x="580" y="170" width="100" height="50" as="geometry"/></mxCell><mxCell id="7RXHgZewywhJvZ7uJUFR-12" value="" style="edgeStyle=orthogonalEdgeStyle;rounded=0;orthogonalLoop=1;jettySize=auto;html=1;" parent="WIyWlLk6GJQsqaUBKTNV-1" source="7RXHgZewywhJvZ7uJUFR-7" target="7RXHgZewywhJvZ7uJUFR-11" edge="1"><mxGeometry relative="1" as="geometry"/></mxCell><mxCell id="7RXHgZewywhJvZ7uJUFR-7" value="Create appropriate signals as per the SOP" style="verticalLabelPosition=bottom;verticalAlign=top;html=1;shape=process;whiteSpace=wrap;rounded=1;size=0.14;arcSize=6;" parent="WIyWlLk6GJQsqaUBKTNV-1" vertex="1"><mxGeometry x="327.5" y="160" width="100" height="60" as="geometry"/></mxCell><mxCell id="7RXHgZewywhJvZ7uJUFR-14" value="" style="edgeStyle=orthogonalEdgeStyle;rounded=0;orthogonalLoop=1;jettySize=auto;html=1;" parent="WIyWlLk6GJQsqaUBKTNV-1" source="7RXHgZewywhJvZ7uJUFR-11" target="7RXHgZewywhJvZ7uJUFR-13" edge="1"><mxGeometry relative="1" as="geometry"/></mxCell><mxCell id="7RXHgZewywhJvZ7uJUFR-11" value="Display buy or sell signals" style="strokeWidth=2;html=1;shape=mxgraph.flowchart.display;whiteSpace=wrap;" parent="WIyWlLk6GJQsqaUBKTNV-1" vertex="1"><mxGeometry x="10" y="180" width="100" height="60" as="geometry"/></mxCell><mxCell id="7RXHgZewywhJvZ7uJUFR-16" value="" style="edgeStyle=orthogonalEdgeStyle;rounded=0;orthogonalLoop=1;jettySize=auto;html=1;" parent="WIyWlLk6GJQsqaUBKTNV-1" source="7RXHgZewywhJvZ7uJUFR-13" target="7RXHgZewywhJvZ7uJUFR-15" edge="1"><mxGeometry relative="1" as="geometry"/></mxCell><mxCell id="7RXHgZewywhJvZ7uJUFR-13" value="Buy or Sell or No action" style="strokeWidth=2;html=1;shape=mxgraph.flowchart.decision;whiteSpace=wrap;" parent="WIyWlLk6GJQsqaUBKTNV-1" vertex="1"><mxGeometry x="10" y="320" width="100" height="100" as="geometry"/></mxCell><mxCell id="7RXHgZewywhJvZ7uJUFR-15" value="End of Trade" style="strokeWidth=2;html=1;shape=mxgraph.flowchart.terminator;whiteSpace=wrap;" parent="WIyWlLk6GJQsqaUBKTNV-1" vertex="1"><mxGeometry x="290" y="340" width="100" height="60" as="geometry"/></mxCell><mxCell id="7RXHgZewywhJvZ7uJUFR-22" style="edgeStyle=orthogonalEdgeStyle;rounded=0;orthogonalLoop=1;jettySize=auto;html=1;exitX=0.5;exitY=1;exitDx=0;exitDy=0;exitPerimeter=0;" parent="WIyWlLk6GJQsqaUBKTNV-1" source="7RXHgZewywhJvZ7uJUFR-4" target="7RXHgZewywhJvZ7uJUFR-2" edge="1"><mxGeometry relative="1" as="geometry"/></mxCell><mxCell id="7RXHgZewywhJvZ7uJUFR-4" value="&#10;&lt;span style=&quot;color: rgb(0, 0, 0); font-family: Helvetica; font-size: 12px; font-style: normal; font-variant-ligatures: normal; font-variant-caps: normal; font-weight: 400; letter-spacing: normal; orphans: 2; text-align: center; text-indent: 0px; text-transform: none; widows: 2; word-spacing: 0px; -webkit-text-stroke-width: 0px; background-color: rgb(251, 251, 251); text-decoration-thickness: initial; text-decoration-style: initial; text-decoration-color: initial; float: none; display: inline !important;&quot;&gt;Start MACD Strategy using Algo&lt;/span&gt;&#10;&#10;" style="strokeWidth=2;html=1;shape=mxgraph.flowchart.start_1;whiteSpace=wrap;" parent="WIyWlLk6GJQsqaUBKTNV-1" vertex="1"><mxGeometry x="20" y="30" width="100" height="60" as="geometry"/></mxCell></root></mxGraphModel></diagram></mxfile>